<?xml version="1.0" standalone="no"?>
<!DOCTYPE svg PUBLIC "-//W3C//DTD SVG 20010904//EN"
 "http://www.w3.org/TR/2001/REC-SVG-20010904/DTD/svg10.dtd">
<svg version="1.0" xmlns="http://www.w3.org/2000/svg"
 width="612.000000pt" height="612.000000pt" viewBox="0 0 612.000000 612.000000"
 preserveAspectRatio="xMidYMid meet">

<g transform="translate(0.000000,612.000000) scale(0.100000,-0.100000)"
fill="#000000" stroke="none">
<path d="M0 4911 c0 -1142 1 -1209 18 -1216 9 -5 25 -7 34 -6 14 2 18 -5 18
-36 0 -28 3 -34 10 -23 6 8 7 27 4 42 -5 24 -3 27 13 21 10 -3 29 -14 43 -22
l25 -16 -18 28 c-10 16 -17 40 -15 54 4 31 28 44 28 15 0 -11 -6 -22 -12 -25
-10 -4 -10 -7 0 -18 11 -12 16 -11 28 6 l15 20 15 -20 c15 -20 16 -19 14 5 -4
44 -1 50 25 50 17 0 25 5 25 18 0 20 55 72 76 72 8 0 14 7 14 15 0 8 7 15 15
15 8 0 15 -7 15 -15 0 -31 33 -10 67 42 12 19 22 23 40 18 22 -5 23 -4 13 15
-14 26 -4 43 20 35 21 -7 40 20 40 54 0 11 11 28 24 36 18 12 26 29 31 65 5
36 12 49 26 53 12 3 19 14 19 29 0 29 26 68 45 68 8 0 18 6 22 13 4 8 16 17
26 20 13 5 17 13 12 28 -10 31 20 59 55 52 23 -4 32 0 46 22 13 21 15 31 7 44
-9 14 -6 24 14 50 20 26 23 34 13 46 -17 20 6 51 25 35 10 -8 16 -3 24 22 14
41 -5 58 -31 27 -10 -11 -22 -17 -28 -14 -8 5 -6 13 5 25 19 21 5 35 -26 25
-15 -5 -22 -2 -26 14 -5 21 -23 29 -23 11 0 -16 -69 42 -76 63 -4 13 -13 18
-29 15 -16 -4 -22 -1 -18 9 3 7 0 13 -5 13 -6 0 -17 12 -24 28 -8 16 -21 27
-34 26 -16 0 -19 5 -16 33 4 30 2 33 -22 33 -28 0 -66 35 -66 61 0 9 -6 22
-14 29 -8 6 -12 18 -9 26 3 8 0 14 -6 14 -6 0 -11 -6 -11 -12 0 -7 -7 0 -15
16 -8 15 -15 39 -15 52 0 13 -8 29 -18 35 -12 8 -17 20 -14 35 3 17 0 24 -11
24 -8 0 -17 9 -20 20 -3 13 0 20 10 20 11 0 10 6 -6 29 -23 33 -31 115 -13
133 18 18 14 35 -9 41 -18 5 -19 8 -9 28 9 16 9 23 0 29 -14 9 -3 97 14 108 6
4 12 24 12 45 1 20 9 46 18 56 11 12 16 31 15 50 -3 20 4 38 19 56 13 15 22
34 20 43 -1 9 4 27 10 40 7 12 10 27 7 32 -3 5 4 25 15 45 11 20 18 41 14 46
-3 6 1 16 9 22 11 8 14 21 10 40 l-5 27 -269 0 -269 0 0 -1209z m840 -477 c0
-16 -16 -19 -25 -4 -8 13 4 32 16 25 5 -4 9 -13 9 -21z"/>
<path d="M4117 6113 c-2 -5 -3 -21 -2 -38 1 -16 3 -41 4 -53 1 -15 9 -26 22
-29 26 -7 23 -50 -3 -45 -13 2 -18 -4 -19 -20 0 -13 -1 -56 -3 -95 -2 -56 0
-73 11 -73 7 0 13 -5 13 -11 0 -5 -5 -7 -10 -4 -6 3 -19 4 -30 0 -25 -8 -16
-31 18 -44 27 -10 27 -10 5 -16 -13 -4 -21 -11 -18 -15 3 -5 1 -11 -4 -15 -6
-3 -7 -13 -4 -21 3 -9 0 -20 -8 -24 -7 -5 -11 -11 -8 -14 3 -3 15 1 27 10 18
12 20 19 12 34 -7 13 -7 21 0 25 12 7 32 -41 28 -64 -2 -9 -11 -15 -21 -13
-10 2 -17 -4 -17 -13 0 -8 -7 -15 -15 -15 -8 0 -15 -4 -15 -10 0 -13 6 -13 32
1 13 7 23 8 30 1 7 -7 3 -14 -11 -21 -12 -7 -21 -19 -21 -28 0 -12 3 -13 14
-4 9 8 16 8 20 2 16 -25 -78 -34 -109 -11 -16 12 -94 23 -185 25 -70 1 -95 7
-145 30 -53 26 -73 29 -190 33 -135 5 -469 -10 -635 -29 -52 -6 -126 -20 -165
-31 -154 -45 -201 -61 -235 -79 -65 -34 -134 -61 -239 -90 -104 -30 -216 -81
-321 -148 -30 -19 -75 -40 -99 -47 -50 -16 -164 -88 -201 -129 -14 -15 -45
-42 -70 -60 -36 -26 -57 -54 -95 -129 -54 -105 -57 -123 -59 -311 l-1 -110
-47 -9 c-47 -9 -63 -28 -33 -40 20 -7 19 -29 -5 -68 -11 -18 -20 -39 -20 -47
0 -7 -16 -31 -36 -53 -27 -30 -34 -46 -32 -70 4 -44 23 -46 43 -5 15 33 43 47
91 47 22 0 6 -51 -23 -76 -30 -26 -31 -41 -8 -163 10 -56 14 -110 10 -135 -8
-50 -8 -132 -1 -166 3 -14 12 -68 20 -120 8 -52 22 -115 32 -140 17 -46 19
-54 29 -170 3 -36 12 -78 20 -94 8 -16 15 -31 15 -33 0 -10 -27 0 -56 22 -71
54 -169 65 -213 24 -26 -25 -28 -96 -4 -142 25 -46 20 -144 -10 -237 -23 -70
-24 -82 -16 -170 9 -85 30 -191 60 -305 6 -22 26 -57 44 -78 32 -37 35 -38 62
-25 24 11 29 20 33 66 3 31 12 57 20 62 45 29 52 -35 11 -97 -17 -26 -31 -54
-31 -64 0 -10 -11 -30 -24 -44 -23 -25 -26 -55 -5 -55 10 0 29 -42 23 -49 -5
-6 -44 30 -44 41 0 4 -9 17 -20 28 l-20 20 0 -22 c0 -13 7 -34 15 -48 8 -14
18 -34 23 -45 6 -11 24 -35 42 -52 39 -38 33 -53 -18 -47 -20 2 -63 6 -94 8
-69 6 -78 10 -71 36 5 17 1 18 -30 13 -29 -4 -40 -1 -62 21 -14 14 -30 26 -35
26 -14 0 -12 34 2 48 7 7 8 12 2 12 -5 0 -15 -9 -22 -21 -11 -16 -19 -19 -45
-14 -18 4 -37 11 -43 16 -6 5 -19 7 -27 3 -14 -5 -14 -2 -4 19 9 20 15 23 29
16 9 -5 23 -9 30 -9 19 1 -49 60 -68 60 -9 0 -14 6 -11 13 2 6 0 23 -5 37 -7
18 -11 21 -17 11 -6 -9 -16 -11 -32 -6 l-23 8 28 14 c27 14 33 51 8 46 -11 -3
-62 39 -62 51 0 3 7 6 15 6 23 0 18 12 -22 50 -23 23 -37 31 -40 23 -6 -17
-33 -17 -33 0 0 6 7 21 15 31 8 11 15 25 15 32 0 18 -65 55 -84 48 -21 -8 -21
12 0 24 11 6 13 11 5 16 -22 14 -11 25 19 20 19 -4 30 -2 30 5 0 10 -21 16
-44 12 -4 -1 -14 6 -22 16 -13 17 -13 17 -15 -2 -1 -11 -2 -27 -1 -35 1 -14
-15 -30 -30 -30 -5 0 -8 15 -8 34 0 23 -7 39 -20 49 -11 8 -17 17 -14 20 4 3
3 14 0 24 -7 17 -8 17 -22 -1 -14 -19 -15 -19 -45 12 -27 27 -37 31 -63 26
-24 -4 -36 -1 -50 15 -11 12 -28 21 -39 21 -15 0 -17 3 -8 13 15 19 -20 52
-37 35 -9 -9 -16 -7 -32 7 -16 14 -22 15 -35 5 -9 -8 -15 -8 -15 -2 0 14 -60
43 -72 36 -5 -3 -6 5 -3 18 4 17 -1 30 -19 48 -18 16 -26 19 -26 9 0 -12 -2
-12 -9 0 -6 9 -6 22 0 32 13 26 12 27 -23 26 l-33 -2 -3 -1452 -2 -1453 3060
0 3060 0 0 3060 0 3060 -200 0 c-149 0 -200 -3 -200 -12 0 -9 -3 -9 -12 0 -18
18 -98 16 -98 -3 0 -8 -4 -15 -10 -15 -5 0 -10 7 -10 15 0 13 -88 15 -734 15
-404 0 -737 -3 -739 -7z m-2687 -1723 c0 -5 -12 -10 -26 -10 -14 0 -23 4 -19
10 3 6 15 10 26 10 10 0 19 -4 19 -10z m1926 -69 c66 -6 88 -13 117 -35 20
-16 58 -33 84 -40 37 -9 49 -17 51 -34 2 -13 22 -35 47 -52 41 -28 74 -87 61
-108 -6 -10 12 -64 42 -120 12 -23 22 -53 22 -67 0 -13 5 -27 10 -30 6 -3 10
-13 10 -21 0 -9 14 -35 30 -59 17 -24 30 -49 30 -55 0 -6 14 -31 30 -55 17
-24 30 -53 30 -65 0 -12 5 -30 11 -41 14 -27 -7 -51 -78 -85 -29 -15 -63 -41
-75 -58 -12 -17 -23 -33 -25 -36 -3 -3 -12 6 -22 19 -14 19 -28 24 -62 25 -37
1 -44 -2 -41 -16 4 -23 -30 -24 -48 -3 -18 22 -51 18 -82 -10 -32 -27 -35 -40
-13 -49 9 -3 15 -19 15 -41 0 -33 2 -35 25 -29 21 5 25 2 30 -23 4 -15 9 -34
11 -41 7 -24 -18 -104 -35 -109 -9 -3 -37 -26 -63 -51 -34 -32 -44 -48 -35
-54 6 -4 60 -8 119 -8 59 0 131 -6 161 -14 43 -11 283 -23 332 -17 19 3 -40
30 -66 31 -14 0 -34 9 -44 20 -10 11 -23 20 -29 20 -6 0 -18 5 -26 10 -12 7
-11 13 10 35 l25 27 109 -7 c103 -6 157 -21 196 -51 8 -6 32 -17 53 -24 20 -6
37 -15 37 -20 0 -4 17 -15 38 -23 21 -8 44 -23 52 -32 12 -15 12 -19 -5 -31
-23 -17 -34 -17 -109 -3 -31 5 -63 8 -69 6 -20 -8 33 -24 133 -41 97 -17 133
-34 195 -93 17 -16 51 -44 77 -63 62 -44 118 -115 118 -151 0 -42 -18 -44 -41
-5 -13 22 -29 36 -40 36 -11 0 -37 9 -58 19 -76 39 -189 36 -135 -4 15 -11 16
-15 5 -29 -17 -20 -34 -10 -28 15 3 10 1 22 -5 25 -6 4 -5 10 3 15 11 7 7 15
-17 37 -18 15 -44 51 -59 80 -16 29 -35 52 -44 52 -9 0 -25 7 -35 15 -11 8
-30 15 -42 15 -29 0 -56 -37 -44 -60 15 -28 -2 -43 -33 -29 -36 17 -82 -11
-73 -45 11 -46 -54 -74 -71 -31 -6 17 10 57 35 86 11 15 10 19 -10 33 -12 9
-28 16 -35 16 -7 0 -13 4 -13 9 0 5 -15 15 -34 21 -19 6 -37 17 -40 25 -3 8
-15 15 -26 15 -11 0 -20 5 -20 10 0 6 14 10 30 10 17 0 30 -4 30 -9 0 -4 11
-6 25 -3 40 7 29 22 -17 23 -24 0 -65 5 -93 10 -52 11 -227 25 -397 33 -53 3
-105 9 -115 14 -10 5 -40 12 -68 16 -102 14 -465 99 -535 126 -14 5 -50 11
-80 14 -30 3 -68 9 -83 15 -42 16 -57 13 -57 -10 0 -20 -4 -21 -102 -16 -57 2
-131 11 -166 18 l-63 14 4 32 c7 50 -11 58 -127 57 -193 -2 -356 -65 -356
-139 0 -13 -5 -36 -10 -51 l-11 -28 -19 32 c-11 18 -20 37 -20 43 0 5 19 29
43 53 47 49 168 106 225 106 18 0 45 6 61 14 35 19 225 23 345 8 60 -8 101
-19 130 -36 44 -26 139 -59 276 -96 47 -13 94 -29 105 -37 11 -7 40 -13 65
-13 25 0 63 -6 84 -14 46 -16 82 -11 66 9 -6 8 -29 16 -51 20 -21 4 -39 8 -39
10 0 2 14 26 31 53 25 41 32 66 41 150 11 112 6 155 -17 146 -9 -4 -15 0 -15
9 0 8 6 18 13 20 6 3 -1 6 -18 6 -27 1 -54 18 -107 65 -22 20 -28 20 -28 1 0
-13 -6 -11 -29 6 -24 17 -32 19 -50 9 -18 -9 -31 -8 -66 6 -24 9 -52 14 -61
10 -9 -4 -24 0 -33 7 -20 18 -100 33 -185 36 -36 1 -82 9 -101 17 -19 7 -49
14 -67 14 -23 0 -37 7 -47 22 -10 16 -10 23 -2 26 6 2 11 12 11 23 0 10 13 25
29 34 16 8 64 48 105 90 108 106 152 175 111 175 -10 0 -15 10 -15 33 0 29 5
35 35 46 22 8 37 21 41 35 3 12 15 29 27 37 12 8 33 26 48 40 51 49 84 55 342
60 15 0 49 0 77 -1 37 -2 60 4 92 23 67 39 92 42 234 28z m-1989 -57 c-3 -3
-12 -4 -19 -1 -8 3 -5 6 6 6 11 1 17 -2 13 -5z m359 -815 c-15 -32 -21 -56
-15 -59 5 -4 1 -15 -11 -25 -11 -10 -19 -28 -18 -39 2 -13 -3 -21 -12 -21 -20
0 -18 69 2 93 9 9 18 31 22 47 11 44 36 79 48 67 6 -6 1 -28 -16 -63z m-96
-256 c-1 -21 -13 -53 -21 -53 -10 0 -12 43 -2 53 9 9 23 9 23 0z m2220 -127
c0 -20 -25 -37 -44 -30 -21 8 -21 31 2 37 32 9 42 7 42 -7z m-1318 -43 c40
-23 46 -40 16 -45 -38 -5 -158 12 -197 28 -35 15 -35 16 -16 31 27 20 153 12
197 -14z m-992 -19 c0 -13 -4 -24 -10 -24 -5 0 -10 14 -10 31 0 17 4 28 10 24
6 -3 10 -17 10 -31z m2210 26 c0 -17 -51 -33 -64 -20 -8 8 -7 14 4 20 20 13
60 13 60 0z m-1300 -80 c0 -5 -7 -10 -16 -10 -8 0 -12 5 -9 10 3 6 10 10 16
10 5 0 9 -4 9 -10z m554 -26 c15 -21 16 -28 5 -35 -18 -11 -39 8 -39 37 0 31
10 30 34 -2z m313 4 c25 -7 35 -17 41 -40 12 -46 63 -49 123 -8 46 31 77 37
107 21 9 -6 29 -12 45 -16 30 -6 37 -25 10 -25 -35 0 -44 -13 -31 -47 11 -28
9 -35 -15 -70 -15 -22 -27 -44 -27 -49 0 -6 17 -19 38 -30 56 -29 72 -45 72
-74 0 -30 51 -84 90 -95 14 -4 53 -18 87 -31 34 -13 112 -33 173 -43 104 -18
118 -18 187 -4 90 18 155 11 180 -20 10 -13 35 -33 55 -45 42 -26 53 -49 39
-83 -5 -13 -17 -65 -26 -115 -15 -80 -15 -94 -2 -125 15 -35 52 -79 65 -79 33
0 108 129 129 222 9 42 26 81 41 99 21 26 24 36 18 74 -5 43 -5 45 20 45 23 0
25 -3 19 -22 -3 -13 -10 -57 -14 -99 -6 -60 -17 -95 -51 -165 -52 -105 -116
-204 -132 -204 -7 0 -26 -10 -43 -21 -31 -21 -31 -24 -34 -106 -1 -47 -6 -96
-11 -109 -6 -14 -12 -75 -15 -137 -4 -101 -7 -117 -37 -172 -60 -113 -142
-215 -173 -215 -29 0 -65 -28 -65 -51 0 -12 -7 -19 -20 -19 -10 0 -24 -8 -29
-19 -6 -10 -25 -28 -43 -39 -18 -11 -67 -41 -108 -66 -41 -25 -85 -46 -96 -46
-13 0 -33 -15 -48 -35 -17 -22 -35 -35 -50 -35 -13 0 -38 -11 -57 -25 -19 -14
-59 -37 -89 -51 -52 -24 -77 -40 -214 -134 -32 -22 -66 -40 -76 -40 -10 0 -20
-3 -22 -7 -5 -13 -66 -53 -80 -53 -8 0 -22 -6 -33 -14 -43 -29 -244 -37 -318
-11 -23 8 -52 15 -63 15 -12 0 -32 8 -45 19 -13 10 -40 26 -59 36 -19 10 -61
42 -94 71 -32 29 -77 62 -100 72 -47 23 -136 98 -136 116 0 7 -11 27 -25 46
-48 65 -19 108 65 97 117 -16 175 -29 196 -46 27 -21 126 -35 179 -25 26 5 35
11 35 26 0 30 -19 58 -40 58 -27 0 -118 37 -146 59 -21 16 -22 20 -9 31 11 9
31 11 68 5 118 -17 152 -1 83 40 -65 38 -96 78 -96 125 0 27 5 40 18 45 37 15
93 14 147 -5 82 -28 215 -28 215 0 0 4 -20 18 -45 30 -41 20 -50 21 -95 10
-57 -14 -77 -9 -147 36 -35 22 -53 41 -53 54 0 23 -25 27 -34 5 -3 -10 -19
-15 -46 -15 -43 0 -51 9 -64 73 -8 33 -22 34 -46 5 -24 -30 -37 -16 -42 42 -3
41 -1 45 20 48 13 2 34 -4 47 -12 17 -11 26 -12 31 -5 8 14 97 3 135 -17 22
-11 62 -14 171 -12 79 2 173 -1 211 -5 45 -6 67 -5 67 2 0 19 -62 43 -122 49
-54 4 -62 8 -97 48 -29 33 -46 44 -68 44 -56 0 -94 50 -59 79 22 18 102 39
130 34 15 -3 26 -1 26 6 0 19 32 12 37 -9 5 -20 23 -28 23 -11 0 19 33 20 60
1 36 -25 62 -25 85 0 10 12 25 18 32 16 20 -8 16 28 -5 55 -18 22 -25 22 -62
0 -42 -24 -83 -30 -104 -16 -11 8 -26 15 -34 15 -7 0 -36 15 -65 33 -40 26
-60 48 -85 95 -36 67 -82 112 -116 112 -29 0 -66 27 -66 49 0 9 11 32 25 51
14 19 25 42 25 51 0 30 12 49 30 49 11 0 22 5 25 10 3 6 16 10 28 10 12 0 33
9 47 20 14 11 31 20 38 20 22 0 32 46 22 97 -24 114 -24 110 3 136 15 13 31
36 37 51 13 35 13 93 0 101 -9 6 -5 42 7 54 2 3 23 6 46 7 23 1 71 9 105 16
l64 14 -39 12 c-21 6 -68 14 -105 17 -38 4 -68 10 -68 15 0 4 21 11 46 15 38
5 43 9 33 21 -15 18 11 51 45 57 31 6 156 -3 193 -15z m-1619 -70 c-4 -36 51
-131 72 -124 61 19 94 36 101 49 10 17 14 16 134 -29 33 -12 76 -25 95 -29 19
-4 55 -18 80 -31 25 -13 54 -24 65 -24 11 0 40 -6 65 -14 33 -10 46 -19 48
-35 2 -14 13 -23 30 -26 15 -3 45 -11 67 -18 38 -11 40 -14 43 -57 2 -28 11
-53 24 -67 20 -21 18 -63 -3 -63 -5 0 -9 -6 -9 -12 -1 -11 -84 -86 -121 -108
-19 -13 0 -30 34 -30 26 -1 29 -2 15 -11 -26 -15 -237 -4 -358 19 -134 26
-270 71 -359 119 l-71 38 0 73 c0 41 -4 72 -10 72 -5 0 -10 -21 -10 -46 0 -25
-4 -53 -10 -63 -8 -15 0 -27 45 -66 85 -75 161 -101 440 -151 190 -34 195 -35
195 -50 0 -17 -67 -147 -115 -223 -38 -62 -76 -95 -122 -111 -32 -11 -33 -13
-32 -68 1 -31 8 -66 15 -76 7 -11 11 -30 8 -42 -4 -15 1 -26 14 -35 29 -21 67
-110 51 -119 -10 -7 -10 -23 -1 -79 21 -126 12 -191 -26 -191 -21 0 -108 79
-144 130 -37 52 -62 152 -52 209 4 25 8 51 9 58 0 6 8 20 17 30 20 22 25 63
13 113 -10 44 -39 102 -60 120 -9 8 -25 31 -36 52 -11 21 -30 43 -42 47 -47
18 -127 115 -127 153 0 15 -6 31 -14 35 -23 13 -86 142 -86 176 0 18 7 45 15
60 11 21 12 34 4 51 -7 16 -8 43 -1 87 10 64 9 66 -25 87 -15 9 -35 166 -27
209 3 17 13 34 22 38 18 7 62 -31 63 -54 0 -11 4 -9 11 7 9 18 8 25 -7 36 -24
17 -13 50 14 41 11 -3 24 1 32 11 12 15 14 13 21 -12 5 -16 7 -41 6 -56z
m-297 11 c6 -12 8 -36 5 -54 -5 -27 -2 -38 15 -53 l21 -20 -21 -7 c-37 -11
-80 -65 -115 -140 -36 -77 -61 -198 -50 -240 4 -15 2 -25 -5 -25 -7 0 -11 34
-11 103 0 80 6 119 25 182 14 44 25 95 25 112 0 18 14 62 32 98 34 69 58 82
79 44z m1149 -58 c0 -5 -18 -16 -40 -25 -22 -9 -40 -20 -40 -26 0 -5 -17 -10
-37 -10 -35 0 -38 2 -39 30 -1 33 7 36 99 39 31 0 57 -3 57 -8z m440 -26 c0
-9 -20 -37 -44 -63 -24 -26 -45 -56 -47 -66 -5 -23 -29 -34 -29 -13 0 8 -9 17
-20 20 -15 4 -20 14 -20 36 0 37 16 40 32 6 16 -36 32 -31 53 18 22 51 43 77
62 77 7 0 13 -7 13 -15z m-210 -85 c-20 -13 -40 -13 -40 0 0 6 12 10 28 10 21
0 24 -2 12 -10z m-2505 -20 c3 -5 1 -10 -4 -10 -6 0 -11 5 -11 10 0 6 2 10 4
10 3 0 8 -4 11 -10z m2493 -48 c2 -15 9 -22 17 -18 22 8 27 -11 11 -41 -24
-43 -48 -67 -85 -86 -68 -34 -91 20 -53 125 l17 49 45 -3 c38 -3 45 -6 48 -26z
m1426 -103 c27 -14 48 -18 70 -13 47 10 20 -12 -34 -27 -60 -17 -167 -17 -207
0 -37 15 -44 44 -15 60 25 16 140 3 186 -20z m210 16 c19 -14 19 -15 -7 -15
-17 0 -27 5 -27 15 0 19 9 19 34 0z m287 -103 c2 -56 -3 -98 -16 -129 -15 -35
-29 -42 -38 -19 -5 12 -10 167 -8 199 1 4 15 1 31 -8 22 -11 30 -23 31 -43z
m114 38 c3 -5 -3 -10 -14 -10 -11 0 -23 5 -26 10 -3 6 3 10 14 10 11 0 23 -4
26 -10z m-4111 -102 c-3 -5 -14 -2 -25 8 -10 9 -16 21 -13 26 3 5 14 2 25 -8
10 -9 16 -21 13 -26z m2004 22 c-7 -10 -14 -17 -17 -15 -4 4 18 35 25 35 2 0
-1 -9 -8 -20z m-48 -68 c0 -4 -10 -13 -22 -21 -23 -14 -23 -14 -4 8 20 22 26
25 26 13z m-1910 -47 c0 -8 -4 -15 -10 -15 -5 0 -10 7 -10 15 0 8 5 15 10 15
6 0 10 -7 10 -15z m1927 -161 c8 -21 -5 -31 -48 -39 -40 -7 -73 14 -63 40 9
22 102 21 111 -1z m-1807 -14 c0 -5 -4 -10 -9 -10 -6 0 -13 5 -16 10 -3 6 1
10 9 10 9 0 16 -4 16 -10z m140 -184 c0 -3 -4 -8 -10 -11 -5 -3 -10 -1 -10 4
0 6 5 11 10 11 6 0 10 -2 10 -4z m180 -93 c0 -14 -19 -38 -25 -32 -8 8 5 39
16 39 5 0 9 -3 9 -7z m90 -23 c0 -5 -4 -10 -10 -10 -5 0 -10 5 -10 10 0 6 5
10 10 10 6 0 10 -4 10 -10z m-90 -60 c0 -5 -2 -10 -4 -10 -3 0 -8 5 -11 10 -3
6 -1 10 4 10 6 0 11 -4 11 -10z m504 -126 c9 -3 16 -12 16 -20 0 -10 -13 -14
-44 -14 -54 0 -76 8 -76 26 0 15 72 20 104 8z m126 -129 c35 -18 70 -61 70
-87 0 -11 -13 -37 -29 -57 -45 -56 -54 -82 -42 -114 6 -15 18 -30 26 -33 8 -4
15 -17 15 -30 0 -13 4 -43 9 -66 25 -112 29 -153 16 -168 -7 -8 -20 -38 -29
-67 -19 -58 -16 -70 36 -133 45 -55 34 -137 -12 -95 -17 15 -17 19 -5 32 23
23 18 49 -16 77 -42 36 -72 32 -122 -15 -11 -10 -44 -31 -73 -46 -49 -25 -71
-53 -43 -53 7 0 9 -17 5 -52 -4 -29 -10 -87 -14 -128 l-7 -75 -7 69 c-4 37
-12 82 -17 100 -5 17 -14 47 -18 66 -9 39 -51 66 -119 77 -36 6 -36 6 -30 -24
5 -21 2 -34 -8 -42 -26 -21 -37 -2 -34 58 2 43 -3 64 -18 87 -49 71 -68 148
-65 251 1 39 -2 81 -8 92 -9 16 -7 21 8 26 11 3 26 17 35 30 9 14 25 25 36 25
19 0 20 -2 6 -27 -32 -63 -54 -162 -45 -201 19 -85 102 -197 172 -231 108 -52
239 -3 298 111 23 45 25 106 4 114 -22 9 -18 24 5 24 17 0 20 7 20 43 0 67
-43 164 -97 219 -59 60 -113 82 -191 76 -67 -5 -138 -45 -160 -91 -21 -43 -31
-32 -25 28 5 45 3 56 -11 61 -16 6 -23 44 -8 44 5 0 19 -11 32 -25 14 -15 33
-25 45 -23 18 3 20 11 23 81 3 77 17 102 27 50 20 -94 14 -88 86 -85 80 5 132
-9 190 -48 24 -16 50 -30 56 -30 16 0 53 76 53 108 0 14 -16 40 -40 64 -22 23
-40 43 -40 45 0 8 34 2 60 -12z m151 -265 c22 -12 25 -43 6 -59 -16 -13 -28
-5 -21 13 3 7 -2 19 -10 26 -9 7 -13 16 -10 21 7 11 11 11 35 -1z m2619 -182
c27 -28 29 -33 13 -36 -11 -2 -32 -29 -52 -67 -34 -67 -59 -87 -46 -37 4 15 9
54 12 87 2 33 6 66 8 73 7 21 31 13 65 -20z m-170 -46 c0 -22 -27 -79 -41 -87
-14 -9 -11 14 7 62 17 45 34 57 34 25z m245 -42 c3 -5 1 -10 -4 -10 -6 0 -11
5 -11 10 0 6 2 10 4 10 3 0 8 -4 11 -10z m100 -96 c0 -14 -12 -23 -42 -32 -32
-10 -44 -20 -52 -44 -16 -44 -22 -31 -14 30 5 48 8 52 32 52 14 0 33 5 41 10
21 13 35 7 35 -16z m-3055 -217 c0 -8 14 -33 30 -55 32 -45 35 -52 21 -52 -12
0 -71 89 -71 107 0 7 5 13 10 13 6 0 10 -6 10 -13z"/>
<path d="M3327 2758 c29 -33 31 -37 48 -124 8 -43 20 -104 26 -134 6 -30 28
-91 49 -135 20 -44 40 -100 44 -123 7 -45 38 -116 56 -127 14 -9 12 10 -5 52
-8 19 -15 41 -15 48 0 8 -10 35 -22 62 -42 94 -50 120 -84 283 -19 91 -36 174
-37 185 -3 26 -15 35 -51 35 l-29 0 20 -22z"/>
<path d="M3470 2506 c0 -62 39 -98 68 -63 8 10 6 16 -9 25 -25 16 -24 42 1 49
32 9 17 28 -23 31 l-37 3 0 -45z"/>
<path d="M3620 2026 c6 -8 33 -22 59 -31 107 -35 158 -94 176 -202 3 -22 13
-49 20 -60 8 -10 15 -41 15 -69 0 -41 -5 -55 -24 -73 l-24 -23 -4 28 c-2 23
-9 30 -31 32 -38 5 -69 -23 -61 -54 5 -21 3 -24 -20 -24 -26 0 -26 -1 -12 -22
9 -12 16 -26 16 -30 0 -13 -34 -8 -54 7 -29 22 -86 20 -86 -3 0 -20 -89 -112
-108 -112 -12 0 -59 -86 -51 -94 4 -4 150 22 179 32 8 3 20 4 26 4 6 -1 19 7
29 18 14 15 31 20 69 20 l51 0 19 -60 c17 -54 18 -67 6 -132 -7 -40 -17 -84
-21 -97 -11 -28 4 -51 34 -51 32 0 97 75 97 113 0 18 5 50 10 72 6 22 14 68
19 103 8 50 17 73 46 107 27 34 34 50 31 72 -3 15 -8 48 -11 72 -3 25 -20 76
-39 115 -18 39 -41 89 -51 111 -9 22 -21 48 -26 57 -18 34 -10 45 36 51 24 4
58 4 75 1 19 -4 30 -2 30 5 0 6 -14 11 -30 11 -17 0 -46 6 -64 14 -18 7 -53
17 -77 21 -24 4 -53 14 -64 21 -11 8 -31 14 -45 14 -14 0 -52 12 -85 25 -70
29 -71 29 -55 11z"/>
<path d="M3320 1520 c-20 -7 -16 -8 23 -9 26 -1 47 4 47 9 0 12 -34 12 -70 0z"/>
<path d="M1622 2620 c0 -14 2 -19 5 -12 2 6 2 18 0 25 -3 6 -5 1 -5 -13z"/>
<path d="M2685 2610 c-11 -17 15 -40 45 -40 37 0 43 21 12 37 -30 16 -49 16
-57 3z"/>
<path d="M4125 2500 c-4 -6 8 -10 30 -10 22 0 34 4 30 10 -3 6 -17 10 -30 10
-13 0 -27 -4 -30 -10z"/>
<path d="M4105 5970 c-3 -5 -1 -10 4 -10 6 0 11 5 11 10 0 6 -2 10 -4 10 -3 0
-8 -4 -11 -10z"/>
<path d="M385 5540 c3 -5 8 -10 11 -10 2 0 4 5 4 10 0 6 -5 10 -11 10 -5 0 -7
-4 -4 -10z"/>
<path d="M1285 4699 c-19 -36 -29 -205 -13 -215 17 -11 21 4 19 75 -1 38 4 90
10 116 14 56 6 68 -16 24z"/>
<path d="M1010 4609 c0 -5 5 -7 10 -4 6 3 10 8 10 11 0 2 -4 4 -10 4 -5 0 -10
-5 -10 -11z"/>
<path d="M360 3840 c0 -5 7 -10 15 -10 8 0 15 5 15 10 0 6 -7 10 -15 10 -8 0
-15 -4 -15 -10z"/>
<path d="M314 3802 c-4 -12 -10 -22 -15 -22 -5 0 -9 -7 -9 -15 0 -8 7 -15 16
-15 10 0 14 6 10 15 -3 8 2 19 12 24 14 8 15 12 4 23 -10 10 -14 9 -18 -10z"/>
<path d="M11 3646 c-8 -9 -11 -19 -7 -23 9 -9 29 13 24 27 -2 8 -8 7 -17 -4z"/>
<path d="M1 2974 c0 -11 3 -14 6 -6 3 7 2 16 -1 19 -3 4 -6 -2 -5 -13z"/>
<path d="M1 2934 c0 -11 3 -14 6 -6 3 7 2 16 -1 19 -3 4 -6 -2 -5 -13z"/>
<path d="M491 2624 c0 -11 3 -14 6 -6 3 7 2 16 -1 19 -3 4 -6 -2 -5 -13z"/>
<path d="M561 2598 c-9 -25 -3 -45 9 -31 14 15 22 53 10 53 -6 0 -14 -10 -19
-22z"/>
<path d="M810 2261 c0 -5 6 -14 14 -20 16 -13 32 2 21 19 -8 12 -35 13 -35 1z"/>
<path d="M1050 1969 c0 -7 3 -9 6 -6 4 3 16 2 26 -4 16 -9 19 -8 16 3 -6 17
-48 23 -48 7z"/>
<path d="M1162 1928 c6 -18 28 -21 28 -4 0 9 -7 16 -16 16 -9 0 -14 -5 -12
-12z"/>
</g>
</svg>
